<?xml version="1.0" standalone="no"?>
<!DOCTYPE svg PUBLIC "-//W3C//DTD SVG 20010904//EN"
 "http://www.w3.org/TR/2001/REC-SVG-20010904/DTD/svg10.dtd">
<svg version="1.0" xmlns="http://www.w3.org/2000/svg"
 width="512.000000pt" height="512.000000pt" viewBox="0 0 512.000000 512.000000"
 preserveAspectRatio="xMidYMid meet">

<g transform="translate(0.000000,512.000000) scale(0.100000,-0.100000)"
fill="#000000" stroke="none">
<path d="M3025 5113 c-387 -53 -703 -331 -807 -710 -32 -117 -31 -354 1 -473
57 -213 194 -412 367 -536 87 -62 234 -130 340 -155 126 -31 313 -31 439 0
110 28 269 102 351 164 326 247 459 664 337 1052 -50 158 -126 278 -258 403
-141 134 -298 213 -492 247 -79 14 -207 18 -278 8z"/>
<path d="M2274 3115 c-215 -108 -429 -291 -562 -480 l-63 -89 51 -17 c105 -34
130 -81 130 -244 l0 -118 89 86 c114 110 172 128 261 82 39 -21 397 -387 409
-418 15 -39 14 -101 -3 -140 -8 -18 -48 -66 -90 -107 -42 -41 -76 -78 -76 -82
0 -5 53 -8 118 -8 137 0 169 -12 217 -79 l30 -43 3 -214 3 -214 600 0 599 0 0
203 c0 215 8 267 43 292 25 17 79 20 108 5 43 -24 49 -56 49 -285 l0 -215 341
0 340 0 -4 458 c-3 424 -5 464 -25 554 -107 477 -403 863 -822 1073 -127 63
-121 63 -198 12 -205 -135 -424 -201 -672 -201 -156 -1 -244 13 -386 59 -113
37 -197 77 -297 141 -37 24 -71 44 -76 44 -4 0 -57 -25 -117 -55z"/>
<path d="M1200 2200 c0 -133 -1 -142 -23 -164 -30 -30 -182 -88 -211 -80 -13
3 -65 48 -117 100 -51 52 -98 94 -104 94 -6 0 -78 -67 -160 -150 l-149 -149
96 -99 c53 -54 100 -110 103 -125 5 -19 -3 -52 -31 -117 -48 -118 -53 -120
-224 -120 l-130 0 0 -220 0 -220 138 0 c164 0 168 -2 212 -110 48 -120 46
-126 -67 -242 l-97 -99 154 -154 154 -155 96 95 c92 90 130 113 168 102 64
-20 151 -62 170 -83 21 -24 22 -34 22 -165 l0 -139 220 0 220 0 0 133 c0 170
5 180 119 225 45 18 94 32 108 32 19 0 52 -26 130 -102 l103 -102 155 154 155
155 -100 100 c-87 88 -100 105 -100 134 0 40 55 185 78 203 10 9 64 15 161 18
l146 5 3 218 2 217 -137 0 c-178 0 -186 4 -232 123 -24 62 -32 94 -27 114 4
16 47 68 104 126 l97 97 -152 152 -152 152 -94 -91 c-124 -122 -128 -123 -245
-77 -120 47 -122 51 -122 224 l0 130 -220 0 -220 0 0 -140z m395 -471 c193
-60 345 -229 391 -436 56 -251 -75 -517 -309 -631 -135 -66 -257 -79 -403 -42
-187 48 -345 200 -405 390 -31 98 -29 240 5 345 98 303 417 469 721 374z"/>
<path d="M1292 1541 c-111 -41 -202 -136 -238 -249 -26 -84 -16 -202 24 -285
76 -153 243 -239 409 -208 89 16 153 52 218 123 176 189 113 496 -125 606 -76
36 -211 41 -288 13z"/>
</g>
</svg>
