<?xml version="1.0" standalone="no"?>
<!DOCTYPE svg PUBLIC "-//W3C//DTD SVG 20010904//EN"
 "http://www.w3.org/TR/2001/REC-SVG-20010904/DTD/svg10.dtd">
<svg version="1.0" xmlns="http://www.w3.org/2000/svg"
 width="512.000000pt" height="512.000000pt" viewBox="0 0 512.000000 512.000000"
 preserveAspectRatio="xMidYMid meet">

<g transform="translate(0.000000,512.000000) scale(0.100000,-0.100000)"
fill="#000000" stroke="none">
<path d="M2380 4954 c-537 -51 -997 -242 -1386 -578 -441 -380 -716 -881 -811
-1478 -24 -157 -24 -517 1 -676 74 -472 259 -879 561 -1230 382 -445 916 -731
1515 -814 123 -17 478 -16 600 1 698 96 1291 459 1679 1026 465 680 549 1542
224 2304 -181 425 -491 794 -888 1056 -329 217 -705 349 -1100 385 -102 9
-313 11 -395 4z m334 -993 c75 -37 128 -91 165 -170 l26 -56 3 -412 3 -412
412 -3 412 -3 56 -26 c79 -37 133 -90 171 -167 29 -59 33 -76 33 -152 0 -71
-4 -94 -26 -141 -37 -79 -90 -133 -167 -171 l-67 -33 -412 -3 -412 -3 -3 -412
-3 -412 -26 -56 c-37 -79 -90 -133 -167 -171 -59 -29 -76 -33 -152 -33 -76 0
-93 4 -152 33 -77 38 -130 92 -167 171 l-26 56 -3 412 -3 412 -412 3 -412 3
-56 26 c-79 37 -133 90 -171 167 -29 59 -33 76 -33 152 0 76 4 93 33 152 38
77 92 130 171 167 l56 26 412 3 412 3 3 412 3 412 26 55 c87 186 293 260 473
171z"/>
</g>
</svg>
