<?xml version="1.0" standalone="no"?>
<!DOCTYPE svg PUBLIC "-//W3C//DTD SVG 20010904//EN"
 "http://www.w3.org/TR/2001/REC-SVG-20010904/DTD/svg10.dtd">
<svg version="1.0" xmlns="http://www.w3.org/2000/svg"
 width="512.000000pt" height="512.000000pt" viewBox="0 0 512.000000 512.000000"
 preserveAspectRatio="xMidYMid meet">

<g transform="translate(0.000000,512.000000) scale(0.100000,-0.100000)"
fill="#000000" stroke="none">
<path d="M729 4087 c-14 -7 -61 -52 -104 -102 -43 -49 -90 -102 -104 -117
l-25 -28 335 0 335 0 38 118 c20 64 36 123 36 130 0 17 -473 17 -511 -1z"/>
<path d="M1425 4088 c-3 -7 -129 -398 -280 -868 -152 -470 -286 -888 -300
-927 l-24 -73 1380 0 1379 0 0 913 0 914 -26 24 -26 24 -1049 3 c-838 2 -1050
0 -1054 -10z m345 -196 c20 -24 20 -43 20 -739 l0 -714 -25 -24 c-34 -35 -78
-33 -116 4 l-29 29 0 701 c0 439 4 709 10 726 11 30 60 54 96 47 13 -2 33 -16
44 -30z m1376 -13 c12 -25 14 -125 12 -735 l-3 -706 -28 -24 c-37 -31 -81 -31
-112 1 l-25 24 0 719 0 719 23 20 c43 40 107 32 133 -18z m-699 19 l23 -21 0
-719 0 -719 -25 -24 c-31 -32 -75 -32 -112 -1 l-28 24 -3 689 c-2 378 0 703 3
721 3 18 15 42 26 53 27 27 86 25 116 -3z"/>
<path d="M3752 3668 l3 -83 553 -3 552 -2 0 28 c0 37 -35 90 -79 119 l-34 23
-499 0 -499 0 3 -82z"/>
<path d="M280 3594 c-113 -131 -110 -124 -110 -246 l0 -108 402 2 402 3 68
210 c37 116 68 211 68 213 0 1 -172 2 -382 1 l-383 0 -65 -75z"/>
<path d="M3752 2501 l3 -909 24 -26 c17 -18 35 -26 57 -26 31 0 36 5 70 70 69
131 210 232 364 260 208 38 433 -75 532 -266 30 -58 36 -64 64 -64 18 0 42 9
55 19 l24 19 3 445 3 446 -368 3 -368 3 -57 28 c-32 16 -71 45 -88 65 -57 70
-60 90 -60 484 l0 358 -130 0 -130 0 2 -909z"/>
<path d="M4182 3049 l3 -361 24 -19 c22 -18 44 -19 381 -19 l357 0 -76 380
-76 380 -308 0 -308 0 3 -361z"/>
<path d="M170 2860 l0 -210 307 2 306 3 67 208 67 207 -373 0 -374 0 0 -210z"/>
<path d="M170 2260 l0 -210 209 0 209 0 66 204 c36 112 66 207 66 210 0 3
-124 6 -275 6 l-275 0 0 -210z"/>
<path d="M765 2038 c-23 -62 -75 -225 -75 -235 0 -10 33 -13 149 -13 l149 0
72 34 c145 70 293 70 439 1 l73 -35 308 0 c290 0 311 1 343 20 75 45 148 63
252 63 104 0 177 -18 252 -63 33 -19 53 -20 444 -20 l409 0 0 130 0 130 -1405
0 c-1115 0 -1407 -3 -1410 -12z"/>
<path d="M170 1750 l0 -130 139 0 139 0 41 123 c23 67 41 125 41 130 0 4 -81
7 -180 7 l-180 0 0 -130z"/>
<path d="M1214 1700 c-102 -21 -203 -102 -247 -198 -17 -37 -22 -66 -22 -137
0 -78 4 -97 28 -146 66 -136 219 -215 364 -188 110 21 202 90 250 188 24 49
28 68 28 146 0 108 -20 159 -89 233 -77 82 -206 124 -312 102z"/>
<path d="M2392 1695 c-76 -21 -110 -41 -163 -96 -111 -114 -125 -288 -34 -426
116 -175 369 -198 519 -47 135 135 133 350 -6 486 -80 78 -210 113 -316 83z"/>
<path d="M4282 1700 c-102 -22 -193 -96 -241 -199 -21 -46 -26 -70 -26 -136 0
-71 4 -89 33 -147 60 -123 169 -191 308 -190 234 0 395 236 313 459 -28 77
-122 172 -194 196 -63 22 -138 28 -193 17z"/>
</g>
</svg>
