<?xml version="1.0" standalone="no"?>
<!DOCTYPE svg PUBLIC "-//W3C//DTD SVG 20010904//EN"
 "http://www.w3.org/TR/2001/REC-SVG-20010904/DTD/svg10.dtd">
<svg version="1.0" xmlns="http://www.w3.org/2000/svg"
 width="512.000000pt" height="512.000000pt" viewBox="0 0 512.000000 512.000000"
 preserveAspectRatio="xMidYMid meet">

<g transform="translate(0.000000,512.000000) scale(0.100000,-0.100000)"
fill="#000000" stroke="none">
<path d="M2511 4909 c-123 -23 -211 -131 -211 -259 0 -42 -4 -50 -40 -79 -32
-26 -40 -39 -40 -65 0 -67 73 -99 138 -61 27 16 29 16 66 -9 22 -14 43 -26 47
-26 5 0 9 -31 9 -69 0 -88 22 -121 80 -121 58 0 80 33 80 121 0 38 4 69 9 69
4 0 25 12 47 26 37 25 39 25 66 9 65 -38 138 -6 138 61 0 26 -8 39 -40 65 -36
29 -40 37 -40 79 0 103 -54 192 -143 233 -62 30 -107 37 -166 26z m112 -179
c34 -27 44 -78 23 -118 -19 -37 -44 -52 -86 -52 -42 0 -67 15 -86 52 -34 65
11 138 86 138 22 0 48 -8 63 -20z"/>
<path d="M1673 4238 c-252 -147 -274 -166 -258 -218 10 -31 45 -60 75 -60 26
0 479 255 514 290 44 44 5 131 -58 129 -21 0 -112 -48 -273 -141z"/>
<path d="M3128 4366 c-39 -29 -42 -93 -6 -123 44 -37 486 -283 508 -283 29 0
65 29 75 60 17 52 -6 71 -261 218 -246 142 -280 156 -316 128z"/>
<path d="M2525 4098 c-37 -21 -44 -41 -45 -125 0 -98 4 -109 42 -129 36 -18
70 -12 98 18 17 18 20 35 20 107 -1 89 -8 108 -47 129 -27 15 -42 15 -68 0z"/>
<path d="M1112 3909 c-13 -5 -70 -36 -127 -69 -101 -59 -105 -61 -142 -50 -24
7 -96 10 -191 8 l-154 -3 -24 -28 c-23 -27 -24 -33 -24 -200 1 -119 4 -177 13
-188 25 -33 55 -39 197 -39 l141 0 78 -45 c43 -25 90 -45 105 -45 57 0 97 78
63 124 -7 9 -42 34 -77 55 l-65 37 -3 66 c-3 77 -15 65 171 172 64 38 124 78
132 89 21 30 19 62 -7 91 -28 29 -55 38 -86 25z m-372 -339 l0 -70 -65 0 -65
0 0 70 0 70 65 0 65 0 0 -70z"/>
<path d="M3954 3910 c-27 -11 -54 -48 -54 -75 0 -38 29 -63 158 -136 70 -40
135 -79 145 -87 12 -11 17 -30 17 -73 l0 -58 -80 -47 c-44 -25 -85 -54 -90
-64 -27 -51 11 -120 67 -120 15 0 62 20 103 45 l75 45 153 0 c154 0 183 5 209
39 9 11 12 69 13 188 0 167 -1 173 -24 200 l-24 28 -154 3 c-95 2 -167 -1
-191 -8 -37 -11 -41 -9 -150 53 -125 72 -143 79 -173 67z m556 -340 l0 -70
-65 0 -65 0 0 70 0 70 65 0 65 0 0 -70z"/>
<path d="M2505 3695 c-23 -22 -25 -31 -25 -122 l0 -98 -98 -21 c-239 -52 -449
-210 -558 -419 -20 -38 -38 -71 -40 -73 -1 -2 -49 24 -106 57 -65 38 -116 61
-134 61 -57 0 -92 -67 -64 -120 5 -10 64 -49 129 -87 l120 -68 -6 -112 c-9
-172 28 -342 102 -468 14 -24 25 -48 25 -52 0 -5 -39 -31 -87 -58 -107 -60
-123 -76 -123 -118 0 -41 35 -77 75 -77 16 0 75 26 137 61 l108 61 41 -37
c109 -98 265 -174 414 -200 111 -19 179 -19 290 0 149 26 305 102 413 200 l41
36 115 -67 c123 -71 145 -75 186 -34 28 28 26 81 -2 107 -13 11 -60 42 -105
68 -46 26 -83 51 -83 57 0 5 11 28 25 51 35 62 75 171 91 255 15 81 18 223 5
290 l-8 43 100 57 c55 31 111 67 124 79 48 46 15 133 -52 133 -15 0 -62 -20
-104 -44 -132 -75 -115 -76 -156 3 -108 205 -319 363 -554 414 l-101 22 0 98
c0 91 -2 100 -25 122 -15 16 -36 25 -55 25 -19 0 -40 -9 -55 -25z m514 -721
c39 -33 54 -84 38 -129 -8 -23 -103 -126 -279 -304 -286 -289 -300 -299 -367
-272 -45 19 -351 333 -352 362 -3 73 8 102 54 129 39 24 94 26 127 4 14 -9 68
-59 120 -110 l95 -94 195 202 c107 110 208 209 225 219 44 28 107 25 144 -7z"/>
<path d="M1155 3250 c-22 -24 -25 -81 -6 -104 22 -27 138 -86 168 -86 55 0 91
68 63 120 -5 10 -39 34 -74 54 -74 42 -123 47 -151 16z"/>
<path d="M3800 3239 c-80 -46 -90 -57 -90 -101 0 -47 28 -78 71 -78 43 0 156
65 174 101 29 54 -7 109 -70 109 -16 0 -55 -14 -85 -31z"/>
<path d="M642 3045 c-16 -7 -32 -20 -36 -30 -3 -9 -6 -146 -6 -305 0 -259 2
-290 18 -309 28 -34 73 -37 108 -8 l29 25 0 295 c0 271 -1 297 -18 315 -24 26
-58 32 -95 17z"/>
<path d="M4410 3047 c-48 -24 -50 -41 -48 -344 3 -277 3 -283 25 -305 31 -31
89 -30 114 1 18 21 19 45 19 311 0 159 -3 296 -6 305 -6 15 -54 45 -71 45 -4
0 -19 -6 -33 -13z"/>
<path d="M626 1989 l-26 -20 0 -169 0 -168 -66 -37 c-106 -59 -104 -56 -104
-198 0 -92 4 -128 15 -144 17 -25 204 -133 230 -133 22 0 173 82 214 116 29
24 30 29 33 117 l3 91 90 53 c50 29 98 62 108 74 36 45 11 110 -48 125 -20 5
-49 -7 -130 -53 l-104 -60 -38 21 -38 22 -5 168 -5 168 -28 24 c-34 29 -66 31
-101 3z m94 -521 c38 -22 40 -25 40 -74 0 -50 -1 -53 -41 -76 l-42 -25 -43 24
c-43 24 -44 26 -44 76 0 50 2 53 38 73 48 28 46 28 92 2z"/>
<path d="M4393 1986 l-28 -24 -5 -168 -5 -169 -40 -22 -40 -22 -85 50 c-99 57
-138 63 -169 23 -21 -27 -26 -59 -15 -89 4 -8 49 -41 100 -71 l94 -55 0 -88
c0 -78 2 -90 23 -108 33 -31 200 -123 222 -123 27 0 211 107 230 133 11 16 15
50 15 144 0 142 2 139 -104 198 l-66 37 0 168 0 169 -26 20 c-35 28 -67 26
-101 -3z m95 -518 c41 -22 42 -24 42 -75 0 -50 -1 -52 -44 -76 l-43 -24 -42
25 c-40 23 -41 26 -41 76 0 49 2 52 38 72 47 28 40 28 90 2z"/>
<path d="M1348 1875 c-79 -46 -98 -67 -98 -105 0 -26 52 -80 77 -80 10 0 55
21 100 46 94 53 114 83 93 134 -26 64 -70 65 -172 5z"/>
<path d="M3625 1885 c-30 -29 -32 -73 -6 -102 25 -26 163 -103 186 -103 25 0
75 55 75 82 0 38 -25 64 -104 107 -85 47 -117 51 -151 16z"/>
<path d="M2395 1684 c-90 -10 -261 -46 -348 -75 -127 -41 -302 -127 -422 -207
-145 -96 -348 -300 -448 -452 -127 -192 -206 -383 -249 -602 -20 -103 -21
-110 -4 -126 16 -16 121 -17 1630 -20 1566 -2 1614 -2 1637 17 l23 18 -21 109
c-44 223 -123 412 -248 599 -254 380 -622 625 -1074 716 -94 19 -382 33 -476
23z"/>
</g>
</svg>
