<?xml version="1.0" standalone="no"?>
<!DOCTYPE svg PUBLIC "-//W3C//DTD SVG 20010904//EN"
 "http://www.w3.org/TR/2001/REC-SVG-20010904/DTD/svg10.dtd">
<svg version="1.0" xmlns="http://www.w3.org/2000/svg"
 width="128.000000pt" height="128.000000pt" viewBox="0 0 128.000000 128.000000"
 preserveAspectRatio="xMidYMid meet">

<g transform="translate(0.000000,128.000000) scale(0.100000,-0.100000)"
fill="000000" stroke="none">
<path d="M645 1267 c-3 -7 -4 -149 -3 -317 l3 -305 315 0 315 0 3 36 c5 57
-24 174 -64 257 -51 106 -168 224 -274 276 -110 54 -283 85 -295 53z"/>
<path d="M470 1219 c-69 -11 -201 -76 -262 -129 -113 -98 -194 -273 -205 -440
-17 -274 159 -530 422 -617 105 -34 277 -39 368 -9 69 23 162 85 162 109 0 9
-82 123 -182 252 l-183 234 0 294 c0 214 -3 296 -12 305 -13 13 -29 14 -108 1z"/>
<path d="M700 575 c-14 -17 -17 -12 208 -290 87 -108 146 -171 159 -173 28 -4
105 90 150 183 51 108 78 256 51 283 -9 9 -86 12 -284 12 -229 0 -273 -2 -284
-15z"/>
</g>
</svg>
