<?xml version="1.0" standalone="no"?>
<!DOCTYPE svg PUBLIC "-//W3C//DTD SVG 20010904//EN"
 "http://www.w3.org/TR/2001/REC-SVG-20010904/DTD/svg10.dtd">
<svg version="1.0" xmlns="http://www.w3.org/2000/svg"
 width="512.000000pt" height="512.000000pt" viewBox="0 0 512.000000 512.000000"
 preserveAspectRatio="xMidYMid meet">

<g transform="translate(0.000000,512.000000) scale(0.100000,-0.100000)"
fill="#000000" stroke="none">
<path d="M1568 5099 c-60 -31 -78 -78 -78 -199 l0 -100 -140 0 c-166 0 -206
-13 -240 -80 -18 -36 -20 -58 -20 -270 0 -212 2 -234 20 -270 13 -26 34 -47
60 -60 38 -20 57 -20 870 -20 813 0 832 0 870 20 26 13 47 34 60 60 18 36 20
58 20 270 0 212 -2 234 -20 270 -34 67 -74 80 -240 80 l-140 0 0 100 c0 123
-18 169 -80 200 -38 19 -58 20 -472 20 -411 -1 -435 -2 -470 -21z"/>
<path d="M168 4429 c-23 -12 -46 -35 -58 -59 -20 -39 -20 -55 -20 -2145 0
-2091 0 -2106 20 -2145 13 -26 34 -47 60 -60 39 -20 55 -20 1870 -20 1815 0
1831 0 1870 20 26 13 47 34 60 60 19 38 20 58 20 547 l0 507 -168 -166 c-127
-126 -181 -173 -227 -196 -169 -84 -822 -374 -872 -387 -149 -39 -296 1 -416
114 -115 107 -165 283 -123 436 14 52 358 816 403 895 16 28 292 313 714 735
l689 690 0 538 c0 519 -1 539 -20 577 -13 26 -34 47 -60 60 -37 19 -58 20
-330 20 l-290 0 0 -120 c0 -140 -12 -203 -52 -284 -58 -116 -179 -208 -306
-235 -75 -16 -1710 -15 -1784 0 -85 18 -158 59 -223 124 -103 101 -135 196
-135 395 l0 120 -292 0 c-272 -1 -296 -2 -330 -21z m1842 -1029 c45 -23 80
-80 80 -130 0 -17 -9 -47 -19 -68 -24 -46 -524 -544 -568 -566 -41 -20 -85
-20 -126 0 -44 22 -294 271 -318 316 -24 48 -24 89 1 138 23 45 80 80 130 80
48 0 88 -25 173 -108 l77 -77 203 202 c111 110 216 208 232 217 41 21 88 20
135 -4z m-1250 -450 c45 -23 80 -80 80 -130 0 -76 -74 -150 -151 -150 -73 0
-149 76 -149 150 0 48 35 107 78 129 48 26 93 26 142 1z m1250 -525 c38 -20
68 -60 76 -100 14 -76 7 -84 -280 -373 -149 -151 -283 -280 -298 -288 -35 -18
-101 -18 -136 0 -15 8 -93 81 -173 163 -110 111 -149 156 -154 181 -21 98 46
182 145 182 56 0 73 -10 168 -103 l82 -82 208 206 c114 114 216 212 227 218
29 15 101 13 135 -4z m-1239 -458 c89 -59 89 -185 0 -244 -71 -48 -175 -20
-213 57 -50 98 21 210 132 210 32 0 58 -7 81 -23z m1239 -517 c45 -23 80 -80
80 -130 0 -17 -9 -47 -19 -68 -24 -46 -524 -544 -568 -566 -41 -20 -85 -20
-126 0 -44 22 -294 271 -318 316 -24 48 -24 89 1 138 23 45 80 80 130 80 48 0
88 -25 173 -108 l77 -77 203 202 c111 110 216 208 232 217 41 21 88 20 135 -4z
m-1250 -450 c45 -23 80 -80 80 -130 0 -76 -74 -150 -151 -150 -73 0 -149 76
-149 150 0 48 35 107 78 129 48 26 93 26 142 1z"/>
<path d="M4385 3212 c-16 -11 -340 -331 -720 -711 l-690 -691 318 -318 317
-317 704 705 c631 631 705 709 712 743 14 82 -2 105 -225 330 -113 115 -223
223 -245 240 -50 40 -126 48 -171 19z"/>
<path d="M2787 1553 c-3 -5 -76 -163 -161 -352 -124 -271 -156 -351 -156 -385
0 -82 75 -151 155 -143 32 3 560 233 702 306 l33 16 -284 284 c-156 156 -286
279 -289 274z"/>
</g>
</svg>
