<?xml version="1.0" standalone="no"?>
<!DOCTYPE svg PUBLIC "-//W3C//DTD SVG 20010904//EN"
 "http://www.w3.org/TR/2001/REC-SVG-20010904/DTD/svg10.dtd">
<svg version="1.0" xmlns="http://www.w3.org/2000/svg"
 width="512.000000pt" height="512.000000pt" viewBox="0 0 512.000000 512.000000"
 preserveAspectRatio="xMidYMid meet">

<g transform="translate(0.000000,512.000000) scale(0.100000,-0.100000)"
fill="#000000" stroke="none">
<path d="M692 4145 c-57 -13 -132 -44 -132 -54 0 -3 439 -298 975 -655 972
-648 974 -648 1025 -648 51 0 53 0 1025 648 536 357 975 652 975 655 0 9 -90
47 -141 58 -71 17 -3659 13 -3727 -4z"/>
<path d="M338 3807 c-17 -43 -25 -2381 -7 -2465 36 -174 178 -321 356 -367 86
-23 3660 -23 3746 0 178 46 320 193 356 367 18 84 10 2422 -7 2465 l-14 32
-996 -663 c-548 -365 -1016 -671 -1039 -680 -118 -44 -255 -40 -368 13 -33 15
-500 321 -1037 679 l-976 651 -14 -32z"/>
</g>
</svg>
