<?xml version="1.0" standalone="no"?>
<!DOCTYPE svg PUBLIC "-//W3C//DTD SVG 20010904//EN"
 "http://www.w3.org/TR/2001/REC-SVG-20010904/DTD/svg10.dtd">
<svg version="1.0" xmlns="http://www.w3.org/2000/svg"
 width="100.000000pt" height="100.000000pt" viewBox="0 0 100.000000 100.000000"
 preserveAspectRatio="xMidYMid meet">

<g transform="translate(0.000000,100.000000) scale(0.100000,-0.100000)"
fill="#000000" stroke="none">
<path d="M107 779 c-55 -29 -91 -89 -91 -153 -1 -46 10 -76 89 -240 l89 -188
88 176 c48 97 90 192 94 211 28 149 -134 265 -269 194z m151 -84 c51 -43 51
-107 1 -154 -49 -45 -149 -10 -162 56 -18 94 90 158 161 98z"/>
<path d="M831 787 c-35 -18 -64 -62 -64 -96 0 -16 24 -82 54 -146 l54 -117 57
117 c32 65 58 127 58 137 0 37 -31 86 -65 102 -40 19 -62 20 -94 3z m84 -62
c32 -31 31 -50 0 -81 -27 -26 -55 -26 -84 1 -21 20 -17 66 9 87 30 24 46 23
75 -7z"/>
<path d="M437 394 l-47 -94 -60 0 c-59 0 -60 0 -80 -40 -11 -21 -20 -44 -20
-50 0 -7 37 -10 112 -8 l112 3 35 110 36 110 163 3 c89 1 162 6 162 10 0 5 -6
15 -12 24 -11 13 -44 17 -184 21 l-171 5 -46 -94z"/>
</g>
</svg>
