<?xml version="1.0" standalone="no"?>
<!DOCTYPE svg PUBLIC "-//W3C//DTD SVG 20010904//EN"
 "http://www.w3.org/TR/2001/REC-SVG-20010904/DTD/svg10.dtd">
<svg version="1.0" xmlns="http://www.w3.org/2000/svg"
 width="512.000000pt" height="512.000000pt" viewBox="0 0 512.000000 512.000000"
 preserveAspectRatio="xMidYMid meet">

<g transform="translate(0.000000,512.000000) scale(0.100000,-0.100000)"
fill="#000000" stroke="none">
<path d="M2265 4938 c-44 -25 -44 -28 -45 -371 l0 -329 -29 -29 c-31 -31 -59
-36 -94 -17 -45 24 -46 31 -47 295 l0 252 -38 -13 c-214 -76 -407 -262 -495
-476 -42 -101 -58 -175 -64 -297 l-6 -113 1113 0 1113 0 -6 113 c-6 122 -22
196 -64 297 -88 214 -281 400 -495 476 l-38 13 0 -252 c-1 -264 -2 -271 -47
-295 -35 -19 -63 -14 -94 17 l-29 29 0 329 c-1 345 -1 347 -47 371 -30 16
-560 16 -588 0z"/>
<path d="M1280 3571 c0 -91 2 -102 24 -128 l24 -28 1232 0 1232 0 24 28 c22
26 24 37 24 128 l0 99 -1280 0 -1280 0 0 -99z"/>
<path d="M1536 3217 c-46 -26 -86 -93 -86 -144 0 -84 66 -158 151 -169 83 -11
99 -32 111 -144 15 -144 52 -275 94 -340 114 -171 435 -385 667 -442 l87 -21
86 21 c235 58 553 269 668 442 42 65 79 196 94 340 12 111 28 133 109 144 85
11 153 86 153 169 0 51 -40 118 -86 144 l-39 23 -985 0 -985 0 -39 -23z"/>
<path d="M2303 1790 c9 -78 29 -126 75 -174 52 -54 104 -76 182 -76 42 0 79 7
105 19 50 23 109 84 130 134 15 36 33 157 23 157 -3 0 -30 -9 -60 -19 -31 -11
-88 -24 -127 -30 -81 -13 -176 -2 -269 30 -30 10 -57 19 -60 19 -3 0 -2 -27 1
-60z"/>
<path d="M2951 1627 c-32 -82 -122 -177 -209 -219 -64 -31 -72 -33 -182 -33
-109 0 -118 2 -181 32 -85 42 -160 118 -201 202 -18 36 -33 68 -35 70 -2 3
-66 -10 -143 -29 -123 -30 -140 -36 -140 -54 0 -12 19 -153 42 -314 38 -269
44 -295 66 -317 l25 -25 566 0 c550 0 568 1 588 20 12 10 24 27 27 37 7 23 86
569 86 597 0 19 -15 25 -143 57 l-143 35 -23 -59z"/>
<path d="M1603 1552 l-63 -15 0 -684 0 -683 1020 0 1020 0 0 683 0 683 -71 17
c-40 10 -73 16 -75 14 -2 -2 -23 -141 -47 -309 -36 -251 -48 -315 -68 -355
-28 -54 -92 -107 -147 -123 -51 -14 -1173 -14 -1224 0 -55 16 -119 69 -146
123 -23 44 -44 164 -107 625 -7 47 -5 46 -92 24z"/>
<path d="M1305 1454 c-132 -70 -225 -165 -291 -299 -69 -139 -74 -177 -74
-581 0 -338 1 -351 20 -372 29 -31 45 -33 235 -30 l170 3 3 653 c1 358 -1 652
-6 652 -4 0 -30 -12 -57 -26z"/>
<path d="M3752 828 l3 -653 170 -3 c190 -3 206 -1 235 30 19 21 20 34 20 372
0 406 -5 441 -76 585 -36 72 -62 110 -118 166 -66 67 -162 134 -214 150 l-22
6 2 -653z"/>
</g>
</svg>
