<?xml version="1.0" standalone="no"?>
<!DOCTYPE svg PUBLIC "-//W3C//DTD SVG 20010904//EN"
 "http://www.w3.org/TR/2001/REC-SVG-20010904/DTD/svg10.dtd">
<svg version="1.0" xmlns="http://www.w3.org/2000/svg"
 width="512.000000pt" height="512.000000pt" viewBox="0 0 512.000000 512.000000"
 preserveAspectRatio="xMidYMid meet">

<g transform="translate(0.000000,512.000000) scale(0.100000,-0.100000)"
fill="#000000" stroke="none">
<path d="M2465 4054 c-11 -2 -44 -9 -73 -15 -264 -53 -492 -279 -563 -560 -18
-70 -18 -268 0 -338 71 -280 282 -491 562 -562 70 -18 268 -18 338 0 280 71
491 282 562 562 18 70 18 268 0 338 -70 276 -270 480 -546 558 -50 14 -243 26
-280 17z"/>
<path d="M671 3449 c-227 -44 -391 -278 -353 -505 32 -196 180 -344 376 -376
289 -48 556 219 508 508 -42 255 -281 422 -531 373z"/>
<path d="M4271 3449 c-227 -44 -391 -278 -353 -505 32 -196 180 -344 376 -376
289 -48 556 219 508 508 -42 255 -281 422 -531 373z"/>
<path d="M633 2250 c-285 -51 -511 -252 -604 -535 -21 -65 -23 -91 -27 -362
l-4 -293 530 0 529 0 6 89 c19 257 112 532 251 735 l47 67 -21 29 c-70 99
-257 220 -395 256 -73 19 -241 26 -312 14z"/>
<path d="M2435 2254 c-232 -34 -404 -100 -570 -219 -291 -207 -471 -527 -501
-892 l-7 -83 1203 0 1203 0 -7 83 c-46 547 -427 981 -961 1092 -78 16 -299 28
-360 19z"/>
<path d="M4220 2245 c-82 -16 -151 -43 -232 -88 -66 -37 -173 -128 -208 -177
l-21 -29 47 -67 c139 -203 232 -478 251 -735 l6 -89 529 0 530 0 -4 293 c-4
271 -6 297 -27 362 -125 380 -495 606 -871 530z"/>
</g>
</svg>
